name Walk8.mot
datacolumns 19
datarows 10
range 3.56500000 3.61000000
endheader

                time	   L_ground_force_vx	   L_ground_force_vy	   L_ground_force_vz	   L_ground_force_px	   L_ground_force_py	   L_ground_force_pz	   R_ground_force_vx	   R_ground_force_vy	   R_ground_force_vz	   R_ground_force_px	   R_ground_force_py	   R_ground_force_pz	   L_ground_torque_x	   L_ground_torque_y	   L_ground_torque_z	   R_ground_torque_x	   R_ground_torque_y	   R_ground_torque_z	
          3.56500000	          0.05892865	          0.12322708	         -0.01077827	         -0.00017069	          0.00000000	          0.00006647	        -26.30120582	        682.46728239	        -45.91662019	          0.43078610	          0.00000000	          0.13910746	          0.00000000	          0.00001331	          0.00000000	          0.00000000	          5.31310283	          0.00000000	
          3.57000000	          0.04251440	          0.08681362	         -0.00928002	         -0.00015341	          0.00000000	          0.00006031	        -25.18494138	        677.89891217	        -45.17769330	          0.43307200	          0.00000000	          0.13914881	          0.00000000	         -0.00000758	          0.00000000	          0.00000000	          5.07278084	          0.00000000	
          3.57500000	          0.02862588	          0.05659647	         -0.00758528	         -0.00013019	          0.00000000	          0.00005159	        -24.09807103	        673.64704835	        -44.58227812	          0.43531431	          0.00000000	          0.13919332	          0.00000000	         -0.00002038	          0.00000000	          0.00000000	          4.84810718	          0.00000000	
          3.58000000	          0.01745548	          0.03274270	         -0.00589857	         -0.00010500	          0.00000000	          0.00004192	        -23.02702220	        669.73356880	        -44.13887456	          0.43751534	          0.00000000	          0.13924098	          0.00000000	         -0.00002697	          0.00000000	          0.00000000	          4.63615741	          0.00000000	
          3.58500000	          0.00891161	          0.01485619	         -0.00435041	         -0.00008054	          0.00000000	          0.00003240	        -21.95869841	        666.18559135	        -43.84663183	          0.43967809	          0.00000000	          0.13928974	          0.00000000	         -0.00002907	          0.00000000	          0.00000000	          4.43383559	          0.00000000	
          3.59000000	          0.00272778	          0.00221097	         -0.00301354	         -0.00005849	          0.00000000	          0.00002374	        -20.88128813	        663.03534592	        -43.69684824	          0.44180609	          0.00000000	          0.13933530	          0.00000000	         -0.00002811	          0.00000000	          0.00000000	          4.23813705	          0.00000000	
          3.59500000	         -0.00145352	         -0.00607302	         -0.00191790	         -0.00003972	          0.00000000	          0.00001630	        -19.78512487	        660.32154736	        -43.67509119	          0.44390494	          0.00000000	          0.13937292	          0.00000000	         -0.00002528	          0.00000000	          0.00000000	          4.04639271	          0.00000000	
          3.60000000	         -0.00401995	         -0.01090509	         -0.00106360	         -0.00002455	          0.00000000	          0.00001024	        -18.66294397	        658.08491744	        -43.76350456	          0.44598029	          0.00000000	          0.13939815	          0.00000000	         -0.00002146	          0.00000000	          0.00000000	          3.85598496	          0.00000000	
          3.60500000	         -0.00534782	         -0.01314133	         -0.00043164	         -0.00001287	          0.00000000	          0.00000555	        -17.50980624	        656.36223305	        -43.94334120	          0.44803450	          0.00000000	          0.13940693	          0.00000000	         -0.00001731	          0.00000000	          0.00000000	          3.66442095	          0.00000000	
          3.61000000	         -0.00577641	         -0.01353608	          0.00000776	         -0.00000437	          0.00000000	          0.00000210	        -16.32255192	        655.18162196	        -44.19634579	          0.45006844	          0.00000000	          0.13939506	          0.00000000	         -0.00001329	          0.00000000	          0.00000000	          3.46960013	          0.00000000	
